<?xml version="1.0" encoding="UTF-8"?>
<svg id="Camada_2" data-name="Camada 2" xmlns="http://www.w3.org/2000/svg" viewBox="0 0 750.86 187.49">
  <defs>
    <style>
      .cls-1 {
        fill: none;
      }

      .cls-2 {
        fill: #f9a948;
      }

      .cls-3 {
        fill: #a77556;
      }

      .cls-4 {
        fill: #a5a5a5;
      }

      .cls-5 {
        fill: #8e684f;
      }

      .cls-6 {
        fill: #7a7a7a;
        font-family: Adam-Bold, Adam;
        font-size: 46.57px;
        font-weight: 700;
        letter-spacing: .2em;
      }
    </style>
  </defs>
  <g id="Camada_1-2" data-name="Camada 1">
    <g>
      <text class="cls-6" transform="translate(329.8 75.5)"><tspan x="0" y="0">residencial</tspan></text>
      <path class="cls-3" d="M659.5,184.11c0,2.15-2.5.78-3.26-.18l-53.31-67.18-.27,42.79c-.04,6.2.15,12.29,2.5,17.95.86,3.59,3.67,4.92,7.32,6.8-6.74.37-13.03.62-20.68-.14,5.16-2.88,7.64-7.29,8.11-13.26,1.48-18.99,1.31-37.96.12-56.92-.24-3.88-5.5-5.79-8.05-8.52l18.66-.36,46.35,58.42c1.1-10.81.46-20.53.64-30.93.16-9.23.42-23.8-9.85-26.95,7.52-1.01,13.63-.62,20.79-.16-8.89,3.4-9.1,16.04-9.09,24.28l.03,54.36Z"/>
      <path class="cls-3" d="M428.78,186.66l-55.81-69.85-.4,42.7c-.08,8.15-.09,21.75,9.85,24.78-6.93.38-13.33.61-20.73-.13,7.58-3.17,8.8-14.05,8.86-20.77.14-16.71.82-33.11-.62-49.63-.34-3.77-5.6-5.48-8.08-8.34,6.38-.57,12.43-.26,19.08-.15l46.26,58.54.43-35.05c.11-8.64-.84-19.51-9.12-23.28,7.14-.42,12.99-.67,20.07.15-3.12,2.03-5.97,2.79-6.69,6.45-1.95,5.62-2.93,11.54-2.26,17.65l-.84,56.93Z"/>
      <path class="cls-3" d="M268.21,177.31c-12.68,13.14-39.22,9.26-53.53.64-.03-7.1-.9-13.37.42-20.69,3.03,7.6,5.88,14.44,11.81,19.99,7.93,7.42,19.51,9.49,28.89,3.94,4.4-2.61,6.78-7.13,7.04-11.6,1.26-21.89-43.71-17.13-46.9-40.65-.96-7.1.63-13.47,5.97-17.99,12.91-10.92,31.37-7.73,46.38-1.7.03,6.66.6,12.85-.4,19.8-3.26-6.77-5.1-13.08-10.38-18.09-6.75-6.42-17.59-7.39-25.49-2.51-4.02,2.48-5.84,6.97-5.84,11.11.01,16.43,28.13,15.7,41.86,29.22,7.68,7.56,7.66,20.77.18,28.52Z"/>
      <path class="cls-3" d="M492.89,184.14c-9.34.75-17.42.48-27.01.13,4.04-2.31,6.39-4.69,6.4-9.32l.16-67.52c-13.35-2.75-23.49,5.06-27.15,18.07-1.26-7.44.73-13.51,1.17-20.34l65.55.06c.04,7.4,2.56,13.27,1.1,20.52-4.13-13.35-14.14-21.02-27.33-18.34l.1,66.54c0,5.05,1.93,8.18,7.02,10.2Z"/>
      <path class="cls-3" d="M579.74,176.48l-32.57-73.91-28.55,69.18c-2.26,5.47-5.27,9.34-10.43,12.48,7.03.5,12.67.61,19.7-.04-12.24-4.64-3.93-17.9-.47-26.6l29.52.02c2.5,7.47,13.17,22.86,3.31,26.66,9.47.36,17.87.58,27.61-.1-3.95-2.6-6.46-3.96-8.11-7.71ZM528.06,155.15l13.72-33.79,14.13,33.82c-9.37.95-18.28.7-27.85-.03Z"/>
      <path class="cls-3" d="M329.89,184.18l27.6.24c-3.12-2.9-6.12-3.87-7.75-7.57l-32.84-74.35-29.03,70.29c-2.04,4.95-4.81,8.29-9.81,11.34,6.87.66,12.82.74,19.58-.04-12.25-4.6-3.81-18.58-.48-26.52l29.66.03c2.37,8.01,13.39,23.16,3.07,26.57ZM297.78,155.25l13.76-34.28,14.09,34.17c-9.21,1.02-18.25.66-27.86.12Z"/>
      <path class="cls-3" d="M742.89,177.14l-32.72-74.61-28.95,69.68c-2.14,5.16-5.19,8.71-10.31,11.95,6.86.66,12.81.68,19.7,0-11.89-4.18-3.6-18.84-.25-26.53l29.82.23c2.31,8.8,13.31,22.38,2.91,26.3,9.44.75,18.12.45,27.78.15-3.29-2.67-6.24-3.62-7.97-7.17ZM690.9,155.13l13.72-33.77,14.08,33.63c-9.38,1.2-18.38.9-27.8.13Z"/>
    </g>
    <g>
      <path class="cls-4" d="M88.82,47.43c0-12.03,4.24-23.06,11.3-31.7-1.73-1.09-3.51-2.1-5.34-3.03-8.76-4.43-18.63-6.91-29.08-6.91s-19.68,2.33-28.24,6.49C15.31,23.06,0,46.14,0,72.85v114.63h37.47v-89.2c0-19.84,12.83-35.91,28.66-35.91s28.65,16.07,28.65,35.91v89.2h36.63v-90.5c-24.11-3.64-42.59-24.44-42.59-49.56Z"/>
      <circle class="cls-2" cx="138.95" cy="47.43" r="47.38"/>
      <path class="cls-1" d="M138.95.05c-14.69,0-27.83,6.69-36.52,17.19,17.48,12.05,28.98,32.46,28.98,55.61v21.35c2.46.39,4.97.6,7.54.6,26.17,0,47.38-21.21,47.38-47.38S165.11.05,138.95.05Z"/>
      <path class="cls-5" d="M102.43,17.25c-6.78,8.2-10.86,18.71-10.86,30.18,0,23.6,17.26,43.16,39.84,46.77v-21.35c0-23.15-11.5-43.56-28.98-55.61Z"/>
    </g>
  </g>
</svg>