<?xml version="1.0" encoding="UTF-8"?>
<svg id="Camada_2" data-name="Camada 2" xmlns="http://www.w3.org/2000/svg" viewBox="0 0 1024 280">
  <defs>
    <style>
      .cls-1 {
        fill: #ee8a3a;
      }

      .cls-2 {
        fill: #ed7a32;
      }

      .cls-3 {
        fill: #ec712e;
      }

      .cls-4 {
        fill: #ed7831;
      }

      .cls-5 {
        fill: #ee8637;
      }

      .cls-6 {
        fill: #ed7931;
      }

      .cls-7 {
        fill: #ed7d33;
      }

      .cls-8 {
        fill: #ec7730;
      }

      .cls-9 {
        fill: #ef903d;
      }

      .cls-10 {
        fill: #ee8b3a;
      }

      .cls-11 {
        fill: #ec722f;
      }

      .cls-12 {
        fill: #ec722e;
      }

      .cls-13 {
        fill: #ef933e;
      }

      .cls-14 {
        fill: #ee8537;
      }

      .cls-15 {
        fill: #ed8135;
      }

      .cls-16 {
        fill: #ec742f;
      }

      .cls-17 {
        fill: #fefefe;
      }

      .cls-18 {
        fill: #ef943f;
      }

      .cls-19 {
        fill: #ed8034;
      }

      .cls-20 {
        fill: #ef8f3c;
      }

      .cls-21 {
        fill: #ef9641;
      }

      .cls-22 {
        fill: #ef9741;
      }

      .cls-23 {
        fill: #ec7530;
      }

      .cls-24 {
        fill: #ed8235;
      }

      .cls-25 {
        fill: #ef9540;
      }

      .cls-26 {
        fill: #ed8336;
      }

      .cls-27 {
        fill: #ed7c33;
      }
    </style>
  </defs>
  <g id="Camada_1-2" data-name="Camada 1">
    <g>
      <path class="cls-17" d="M0,208.26V35.87l11.97.08,27.22,34.69,60.63,77.49.1-112.24,26.97.02-.06,171.77c-4.55,1.06-8.27.8-12.47.15-6.73-9.28-13.62-17.29-20.81-26.33L27.08,97.98l-.19,110.03-26.88.24Z"/>
      <path class="cls-17" d="M361.65,280h-10.99c-4.12-1.72-8.01-3.39-10.39-7.51-4.89-8.46-4.79-17.6,1.49-25.58,3.56-4.52,10.24-7.17,16.13-6.63s11.32,3.68,14.59,8.86l.21-29.7c.9-.39,1.99-.43,2.95.05v59.24c-.89.47-2.24.45-2.83.11l-.57-6.9c-1.85,4.66-6.44,6.11-10.58,8.06ZM349.21,275.65c5.6,2.57,11.66,2.03,16.08-1.07,3.82-2.67,7.25-6.86,7.52-12.43.33-6.79-1.3-13.3-7.97-16.38-6.39-2.95-15.47-2.5-20.59,2.76-7.92,8.15-5.34,22.39,4.96,27.12Z"/>
      <path class="cls-17" d="M755.26,280h-9.99c-3.47-1.94-7.19-3.17-8.2-6.55-1.23-4.14-1.32-8,1.67-10.79,3.09-2.89,6.11-4.68,10.5-4.67l17.04.03c-.25-3.9-.25-8.67-3.64-11.42-5.41-4.39-15.43-3.56-19.24,2.4-.95,1.48-1.96,4.38-4.52,3.06-.22-4.71,3.38-8.24,8.15-10.42,7.71-3.52,19.86-.84,21.7,8.65s-.46,19.25.75,28.45c-1.42.5-2.14.35-3.17.15-.35-2.08.44-3.63-.43-6.1-2.83,3.87-6.62,5.5-10.62,7.22ZM761.64,273.11c3.63-3.76,4.16-8.43,4.71-13.04-6.36.26-22.93-1.81-25.53,5.21-1.07,2.9-1.37,7.93,1.44,9.68,5.75,3.57,14.51,3.19,19.38-1.85Z"/>
      <path class="cls-17" d="M226.78,280h-10.99c-5.46-1.88-8.38-5.83-8.15-11.59.21-5.14,4.39-10.19,10.19-10.24l18.8-.16c.04-3.11,1.03-7.01-1.26-9.64-5.48-6.27-16.57-5.96-21.6.5-.77.99-.66,2.24-1.01,2.74-.52.74-2.02.78-2.98.16,1.69-6.91,7.47-11.48,14.68-11.62,6-.12,13.82,3.24,14.81,10.31,1.36,9.64.03,19.33.48,28.93-4.62-.03-2.41-2.85-3.24-6.27-2.06,3.81-6.31,4.63-9.73,6.88ZM232.66,272.86c3.65-3.38,5.23-7.35,3.79-12.85-7.04.17-27.95-2.17-25.69,10.43.89,4.96,4.94,6.78,9.98,6.8s8.43-1.16,11.91-4.38Z"/>
      <path class="cls-17" d="M692.32,280h-9.99c-5.78-2.36-10.72-6.22-10.79-13.23l-.25-24.78c-.01-1.22,1.86-.97,2.46-.82s1.47.96,1.49,2.04l.4,25.74c.06,3.59,4.46,7.01,7.73,7.8,8.56,2.07,18.52-2.9,18.71-11.73l.5-23.63c.01-.63,2.44-.34,2.78.17s1,1.25,1,2.55l-.05,34.74c-1.48.29-2.51.21-3.95.06-.35-2.12.48-3.68-.45-6.16-2.58,3.71-5.94,5.41-9.59,7.25Z"/>
      <path class="cls-17" d="M470.54,280h-9.99c-.74-1.49-2.84-.72-4.42-1.59-11.68-6.44-13.87-21.64-5.04-32.07,6.39-7.55,18.03-8.21,26.59-2,10.68,7.75,10.37,24.53.04,32.71-2.4,1.9-5.39,1.16-7.17,2.96ZM477.85,248.06c-7.59-5.59-17.8-5.38-24.81.25-6.4,7.65-5.8,17.48.73,24.22,6.17,6.36,17.41,6.21,23.68.01,6.68-6.59,7-16.62.4-24.48Z"/>
      <path class="cls-17" d="M633.38,280h-11.99c-4.7-2.29-9.63-4.71-9.99-11.15-.06-1.06,1.64-.95,2.48-.78s.36,1.61.96,2.68c4.23,7.5,15.14,9.03,21.76,3.67,1.91-1.54,2.82-4.62,2.32-6.35-2.47-8.46-23.28-4.52-25.98-14.23-.69-2.48-.11-5.25,1.56-7.92,3.85-6.14,12.72-6.99,19.2-4.25,3.99,1.69,6.35,4.1,7.66,8.77.24.85-1.8.78-2.41.65-1.77-.4-2.05-7.54-11.58-7.11-3.82.17-8.08.25-10.49,3.52-1.39,1.89-1.68,4.44-.82,6.29,2.36,5.03,15.45,5.45,20.59,7s5.48,6.76,5.15,10.83c-.4,4.96-4.26,6.2-8.41,8.39Z"/>
      <path class="cls-17" d="M292.71,280h-9.99c-15.98-5.09-9.6-24.95-11.11-38.62,1.17-.43,2.21-.42,3.05-.02l.22,23.65c.05,5.21,3.94,10.55,8.81,11.71,5.36,1.27,9.97.15,13.95-3,10.1-7.99,3.43-25.92,7.44-33.48l.52,39.48c-4.16-2.34-.53-5.69-2.29-8.82-2.1,4.62-6.31,7.03-10.59,9.11Z"/>
      <path class="cls-17" d="M814.2,280h-7.99c-3.87-2.47-6.09-5.86-6.08-10.96l.11-49.65c1.43-.31,2.53-.31,3.95,0l.15,52.44c0,2.22,1.89,4.01,3.18,4.82,2.21,1.39,9.61-1.97,7.58,1.68-.28.5-.49,1.17-.89,1.68Z"/>
      <path class="cls-17" d="M827.16,35.88c18.44.52,36.46-.98,54.34.59,10.91.96,20.27,6.25,27.18,13.56,17.1,22.09,13.99,54.61-12.02,69.04l30.43,43.46.07,20.91c-3.25,2.86-6.84,5.03-10.27,7.66-34.42,26.48-92.28,26.4-124.91,3.49l-20.57-14.44c-6.62-4.65-11.65-10.9-16.91-16.95-2.55-2.94-5.69-4.98-7.43-8.77h-30.79s0,53.82,0,53.82l-26.98-.03V34.8s65.37.52,65.37.52c11.86.09,22.6,3.52,32.31,9.65,11.35,9.08,21.47,20.14,23.85,34.77,1.93,11.85,2.69,24.42-.96,35.5-5.35,16.24-17.59,27.53-33.35,34.1,22.97,22.79,49.87,37.87,82.18,34.55,14.94-.74,28.44-4.82,40.87-13.19-3.9-5.48-6.36-10.7-10.22-15.49-8-9.95-14.61-20.41-22.04-30.7l-13.17.11.02,50.59c-4.69.68-23.05-.28-26.91-3.53l-.1-135.79ZM784,83.95c-4.5-12.01-14.77-21.67-28.06-21.81l-39.65-.42v65.94c22.34-1.86,51.58,6.54,65.05-14.89,5.8-9.23,6.29-19.09,2.65-28.81ZM893.27,83.24c1.06-10.52-5.1-19.58-15.47-21.12-7.69-1.14-15.55.2-23.63-.42l-.02,36.86c12.26,0,37.3,2.77,39.11-15.33Z"/>
      <path class="cls-17" d="M610.07,36.67c5.77,1.2,10.93,1.58,16.06,3.55,19.49,7.5,35.22,21.99,45.32,40.38,5.2,9.48,7.39,20.28,9.07,30.94,2.15,13.61-.91,30.83-5.24,43.93-4.19,12.7-12.64,22.71-22.34,31.47-13.05,11.79-27.68,19.67-45.55,21.61-24.3,2.63-44.99-3.78-63.46-19.7-11.22-9.67-20.83-21.14-25.17-35.53-6.04-19.99-7.21-40.66-.36-61.02,8-23.78,27.31-43.46,50.95-52.32,6.98-2.61,13.93-2,20.07-4.79l1.89-1.72,13.28.47c2.82-.29,4.65.63,5.47,2.75ZM653.86,127.44c1.21-12.67-2.17-28.98-9.72-38.46-12.76-16.02-25.42-25.56-46.74-25.41-10.25.07-19.81,1.84-28.4,7.87-19.24,13.49-29.67,30.71-28.18,54.73,1,16.08,8.27,29.41,19.84,40.07,20.56,18.95,52.21,19.09,72.99.54,11.73-10.47,18.68-23.34,20.21-39.35Z"/>
      <path class="cls-17" d="M368.26,193.6c-10.1,10.94-24.34,15.73-39.09,17.24s-29.49-2.77-41.83-11.3c-6.55-4.53-11.81-10.74-16.79-17.15-8.45-10.88-10.55-25.11-9.71-38.87h27.01c-.93,11.15,1.25,22.69,9.12,30.21,13.77,13.13,38.41,13.13,52.09.98,8.27-7.35,10.98-19.88,2.65-28.41-5.35-5.48-13.06-8.03-20.36-10.45-14.33-4.74-28.19-8.79-42-14.92s-22.15-17.91-24.25-32.78c-1.84-12.98,3.16-26.33,11.71-36.05,7.37-8.38,16-13.06,26.41-15.83,14.71-3.92,28.26-2.76,42.83,2.28,21.58,7.46,35.1,28.99,32.38,52.13l-26.89-.02c2.11-18.17-9.98-27.88-26.53-30.32-11.06-1.63-25.62,3.18-31.3,14.31-2.82,5.53-2.38,12.03,1.16,16.64,5.04,6.58,11.8,8.74,19.14,11.19l29.85,9.95c13.63,4.55,25.62,12.28,33.89,23.88,5.22,7.32,6.06,16.32,5.94,25.11-.18,12.82-6.13,22.94-15.44,32.18Z"/>
      <path class="cls-17" d="M229.48,154.5l.35-118.61h27.02s-.5,122.15-.5,122.15c-.04,8.55-4.11,16.96-8.26,23.41-12.88,20.05-33.61,30.62-57.42,28.86-29.99-2.21-56.22-28.44-56.36-57.27l-.58-117.15h27.03s.43,113.97.43,113.97c.02,5.89,1.41,12.2,4.27,16.76,11.04,17.6,34.01,22.19,50.55,9.96,6.05-4.47,13.44-12.97,13.47-22.09Z"/>
      <polygon class="cls-17" points="1000.72 154.15 961.06 154.5 961.07 181.36 1023 181.35 1022.97 208.28 934.11 208.18 934.06 35.87 1022.97 35.86 1022.99 61.78 961.05 61.77 961.05 127.54 1008.83 127.55 1000.72 154.15"/>
      <path class="cls-11" d="M410.92,177.37c-14.56-17.03-20.85-38.81-19.36-61.86,1.04-16.2,5.99-32.97,16.37-44.76,2.82,1.57,3.97,4.87,3.44,9.89l2.2,90.44c.59,3.66-.29,5.75-2.64,6.3Z"/>
      <path class="cls-23" d="M420.48,103.37c-2.53,13.31-3.53,27.3,1.88,40.37,1.09,2.64,1.77,4.48,2.06,7.01,1.28,1.44,1.9,3.78,2.2,5.68,1.54,9.99,1.17,24.34-.3,34.3l-2.56.28c-2.84-2.69-6.31-4.44-8.46-8.05l-1.27-4.45c-1.02-36.66-2.11-72.99-3.28-108.97l1.17-3.77c.54-3.18,3.61-4.72,5.68-6.66.88-.44,1.99-.61,2.56.12,3.65,4.65,1.09,36.58.34,44.15Z"/>
      <path class="cls-4" d="M443.52,173.37l1.24,1.67-.5,21.91c1.82,3.61,1.55,5.89-.83,6.84-7.47-2.78-13.91-7.3-19.67-12.78,3.21-2.38,1.27-23.26.94-28.59-.26-4.16.16-7.96-.27-11.67,1.99.44,2.48,2.52,3.5,4.4,3.99,7.32,10.48,12.25,15.59,18.22Z"/>
      <path class="cls-15" d="M617.55,6.28c3.57.61,2.13,6.46-1.03,7.34l-10.26,1.52c.97,7.59,1.86,14.57,3.82,21.54-8.25-1.72-12.82-.13-20.65-1.5l4.15-18.27c.27-1.19-.22-2.32-.84-2.79-.37-.28-1.13-.28-1.54-.5-3.61-.26-3.74-5.7-.85-7.28,3.47.25,7.09-2.45,10.9-1.95,5.57.73,10.93,2.31,16.29,1.89Z"/>
      <path class="cls-24" d="M479.71,34.06l1.89,1.45c.72,7.54.98,15.13.77,22.77l-2.02,1.33c-5.93-1.27-12.75.98-18.8,1.77-.77.24-1.97.28-2.07-.23-1.39-6.68-1.54-17.28-.68-24.1l1.83-2.04,7.89-1.48c3.69-.69,8.21-2.45,11.19.52Z"/>
      <path class="cls-8" d="M428.58,48.83c2.65-2.19,3.81-1.86,5,1.35.52,1.39.25,28.34-.43,29.67-.18.35-.51.62-.89.87-1.48,4.78-5.68,8.3-7.9,12.78-1.58,3.2-1.4,7.29-3.88,9.88-1.52-12.4-.56-23.55-.85-36.63-.07-3.04-.16-5.65-2.04-7.64,1.34-1.61,1.81-4.05,4.56-5.92l6.43-4.36Z"/>
      <path class="cls-2" d="M444.74,39.15c.52.74,1.01,1.5,1.38,2.31s.66,1.55.71,2.34c.11,1.63,1.35,21.52.94,22.57-.36.93-.81,1.5-1.88,1.99l-8.18,7.42c-2.02,1.84-3.01,4.29-5.43,4.93-1.8-2.99.22-29.74-.84-30.97-.57-.66-1.68-1.08-2.83-.92-.09.06,4.34-6.45,16.15-9.67Z"/>
      <path class="cls-7" d="M460.63,35.01c.87,7.34-1.13,15.06.25,22.64l.68,3.73c-5.56.73-10.34,5.51-15.67,6.98l-.6-10.09c-.39-6.52-.41-12.92-.54-19.11,5.38-1.47,10.41-3.11,15.89-4.14Z"/>
      <path class="cls-16" d="M415.29,182.96c-.98-1.65-3.05-4.04-4.37-5.59,1.72-5.87.07-12.33.73-18.91-.18,1.81-1.76-45.42-1.79-48.6l-.34-29.17c-.04-3.62-.94-6.9-1.6-9.94,1.29-1.46,2.33-4.14,3.99-4.98,1.12,3.12,1.06,6.68,1.17,10.48l.96,34.95.99,35.68c.34,12.25.47,24.26.26,36.08Z"/>
      <path class="cls-27" d="M457.76,180.78l2.03,1.79c-.65,8.16-.51,16.29.44,24.39l-2.58,1.29c-5.28-.23-9.33-2.65-14.21-4.47.09-2.07-.19-4.26-1.12-6.64,1.02-4.93-1.01-22.76,1.22-23.77l14.23,7.41Z"/>
      <path class="cls-19" d="M473.39,183.63l1.6,2.63c-.6,7.37-.24,14.72,1.1,22.05l-1.67,2.64c-2.38.24-23.38-2.98-16.77-2.69,1.71-3.17.29-6.34-.2-9.98-.81-6.02.58-11.89.31-17.49,4.57,2.38,10.65,1.38,15.64,2.85Z"/>
      <path class="cls-14" d="M494.26,35.99l1.54,2.18c-.4,7.57-.16,15.16.71,22.78l-2.08,1.67-14.08-3.01.24-14.73c-1.4-3.74-1.17-7.35-.88-10.82,5.17-.95,9.9.15,14.55,1.93Z"/>
      <path class="cls-14" d="M496.57,179.59l2.16,1.86s.49,8.06,1.47,24.18l-1.86,1.56c-4.48,1.33-9.07,2.23-13.74,2.7l-2-.86-.04-20.62c-1.13-2.83-.8-4.76.97-5.78,4.37-.57,8.8-1.9,13.04-3.05Z"/>
      <path class="cls-6" d="M655.15,1.21c3.94,3.2,1.75,15.42-2.87,17.34,4.3.81-10.38-.28-18.78-1.93-2.78.82-2.77-10.13-2.4-10.98.32-.73,1.19-1.1,1.95-1.42,6.8-3.06,14.73-3.08,22.1-3.02Z"/>
      <path class="cls-26" d="M483.53,182.64l1.01,5.64.06,21.62-10.18,1.04c-1.16-9.11-2.78-18.24-1.02-27.31,2.78.82,7.27-.62,10.13-.99Z"/>
      <path class="cls-16" d="M672.53,3.17c.73.27,1.77.69,1.76,1.27-.06,3.03-2,12.36-5.02,13.15-5.77.85-11.17,2.06-16.99.96,2.08-5.49,3.31-11.47,2.87-17.34,5.78.05,12.03-.66,17.39,1.96Z"/>
      <path class="cls-10" d="M508.38,203.13c-3.1,2.25-6.45,3.01-10.04,4.07l-1.37-14.3c-.44-4.62.11-9.05-.4-13.31,3.15-.85,6.58-3.04,9.13-4.95,1.96-1.08,2.95.04,2.97,3.36v18.34c.64,2.63.54,4.89-.29,6.79Z"/>
      <path class="cls-17" d="M547.6,241.68l-8.36,17.11c-1.03,2.11-7.98,19.71-9.49,20.07-1.34.32-3.62.75-4.3-.76l-5.55-12.43c-3.31-7.41-5.94-14.75-10.17-21.79-.54-.9-.41-2.47.26-2.7,1.64-.56,2.28.1,2.93,1.55l4.67,10.37,10.48,21.56c6.37-11.81,11.09-22.54,15.98-33.68.91.12,1.92.05,3.56.71Z"/>
      <path class="cls-10" d="M502.63,38.12c2.7,4.95,3.55,21.64,1.13,26.11-.4.75-.93,1.42-1.49,2.08-2.65-.32-5.58-3.22-7.83-3.7.67-8.55-2.65-17.65-.17-26.63,2.32.5,6.19.86,8.37,2.13Z"/>
      <path class="cls-21" d="M534.58,2.3c3.16,3.51,1.38,13.3-2.23,16.15-5.93-1.43-12.9-1.74-17.56-7.03-1.01-1.14.92-5.05,2.47-5.66,5.71-2.27,11.61-3.79,17.32-3.46Z"/>
      <path class="cls-9" d="M513.51,171.79l1.96,4.75c.34,7.27.68,14.52,1.02,21.76l-1.98,1.55c-.68,2.98-4.45,2.06-6.14,3.29-3.71-1.38.19-25.36-2.68-28.49l6.96-5.21c.73-.54.97,1.84.86,2.35Z"/>
      <path class="cls-20" d="M559.35,2.31c3.57,2.35,2.18,12.9-1.01,15.31-4.93.42-8.99,1.67-13.95.98-.74-.23-1.81-.63-1.82-1.21-.02-2.13,1.13-7.55,1.74-9.94-.08-3.62.97-5.77,3.15-6.44,4.12-.42,7.8,1.1,11.89,1.31Z"/>
      <path class="cls-1" d="M576.51,5.33c3.09,1.87,1.75,9.5-1.92,10.32-5.45.67-10.81,1.49-16.24,1.96.14-5.14,1.42-10.16,1.01-15.31,5.77.3,11.68.99,17.16,3.03Z"/>
      <path class="cls-13" d="M547.47,1l-3.07,17.6c-3.95-.55-7.98.83-12.05-.15.76-5.38,2.07-10.71,2.23-16.15,4.1-1.98,8.56-.86,12.89-1.3Z"/>
      <path class="cls-18" d="M514.52,199.85c-.03-4.68.44-9.51-1.16-14.49.42-4.82.27-9.24.16-13.57,5.38,6,9.17,13.27,15.09,19.13l-10.13,7.41-3.95,1.53Z"/>
      <path class="cls-13" d="M516.35,44.15l1.52,1.54-.3,8.37c.65,4.47.44,8.61-.64,12.42-.5,2.71-1.93,5.36-4.32,7.57-2.14-.87-2.66-3.36-4.24-3.77l-1.41-1.6c.3-9.17.35-18.37.15-27.63l2.22-.74c2.78.77,4.45,2.66,7,3.84Z"/>
      <path class="cls-9" d="M509.34,40.31c-2.16,7.61,2.3,23.53-.96,29.97-2.24-.58-3.87-3.69-6.11-3.96.79-9.37.51-18.8.36-28.2,1.53.89,4.89,1.69,6.71,2.19Z"/>
      <path class="cls-3" d="M669.28,17.59l3.26-14.42c2.86-1.17,14.79,3.22,14.9,6.34.23,6.23-13.82,7.44-18.16,8.08Z"/>
      <path class="cls-27" d="M633.05,4.22l.45,12.39c-5.65-1.11-11.44-1.45-16.98-3,.17-2.5,1.56-4.85,1.03-7.34,5.2-.4,10.27-2.91,15.5-2.05Z"/>
      <path class="cls-22" d="M516.93,66.48c-1.45-.76-1.92-21.75-.58-22.33,4.43,2.04,8.6,4.65,12.63,8.66-6.32,5.51-6.95,9.47-12.04,13.67Z"/>
      <path class="cls-5" d="M590.36,6.34c.43,2.34-.28,5.11.85,7.28l-16.61,2.04c1.3-3.27,1.48-6.85,1.92-10.32l13.84,1Z"/>
      <path class="cls-17" d="M414.62,278.41c-.84,1.04-1.92.68-3.03.41v-37.5c1.12-.32,1.9-.31,3.01,0l.02,37.09Z"/>
      <path class="cls-17" d="M579.46,278.41c-.84,1.04-1.92.68-3.03.41v-37.5c1.12-.32,1.9-.31,3.01,0l.02,37.09Z"/>
      <path class="cls-17" d="M575.76,228.65c.41-1,3.11-.36,4.03-.41,1.01-.06,1.01,2.8.2,3.73-.52.6-1.77,1.05-2.57.81-1.62-.5-2.79-1.33-1.65-4.13Z"/>
      <path class="cls-17" d="M410.93,228.73c.53-1.14,2.73-.67,3.6-.14,1.12.69,1.65,2.04.07,3.09-.7.47-1.38,2.04-2.47,1.44-1.32-.72-2.22-2.18-1.2-4.39Z"/>
      <path class="cls-1" d="M584.49,79.94c1.55,1.83,2.36,3.94,2.01,6.31-1.2,25.02-2.35,49.94-3.45,74.76l-2.59,1.33c-2.84-.12-7.41-4.67-9.85-5.93-1.03-1.91-1.06-4.42-.1-7.51.62-20.45,1.2-40.97,1.75-61.56l2.19-3.2c3.84-1.53,6.14-4.52,10.04-4.21Z"/>
      <path class="cls-9" d="M570.62,156.42c-3.28-1.69-5.95-4.8-8.01-7.19-2.2-7.72-1.71-16.01.06-23.76-.83-7.44-.49-14.79,1.02-22.04-.75-4.37-.16-8.17,1.79-11.42,3.4-2.98,4.9-6.22,8.98-7.85-.72,7.18.72,14.72-.44,22.15s-.4,13.95-.75,21.18c-.27,5.66-1.62,11.09-.94,17.02.5,4.31.18,8.49-1.71,11.91Z"/>
      <path class="cls-5" d="M589.51,78.77c2.87-.04,3.96,2.11,3.29,6.44-1.07,26.14-2.32,52.26-3.74,78.38l-2.61.74-5.99-1.98c1.7-3.15.36-7.03.83-10.89,1-8.09.86-15.8,1.24-23.88l.96-19.98c.46-9.53,1.23-18.6,1-27.66,1.73.14,3.5-2.45,5.02-1.17Z"/>
      <path class="cls-26" d="M595.38,110.67l1.42,3.37c-.81,16.9-1.54,33.78-2.2,50.63l-2.11,1.24c-2.24-.54-4.69-1.14-6.04-1.58,1.43-1.86,1.04-4.21,1.16-6.97l3.19-72.22c.11-2.52.11-4.72-1.29-6.37,6.75-1.1,13.93-2.1,20.83.95-5.8,3.55-12.3,5.07-14.56,10.41-2.9,6.87-3.59,14.39-.4,20.52Z"/>
      <path class="cls-7" d="M612.5,120.9l2.34.86c-.03,12.93-.53,25.96-1.5,39.08l-1.93,2.48c-3.68.59-6.46,3.11-10.23,2.76-2.29-.39-3.27-2.21-2.94-5.48.99-6.84,1.48-10.27,1.48-10.27-.49-9.8-.56-19.7,1.61-29.33l2.51-1.96c2.6,1.06,6.19,2.11,8.65,1.86Z"/>
      <path class="cls-25" d="M562.61,149.23c-14.47-16.79-13.24-43.11,2.87-57.22-.67,4.26.96,8.94-.11,13.59-3.18,13.94,1.63,15.89-2.24,26.9l.36,14.05c.03,1.21-.35,2.14-.88,2.68Z"/>
      <path class="cls-4" d="M623.4,157.21c-4.46,3.08-7.08,5.32-11.98,6.11-.24-4.54.21-9.06.77-13.96.7-6.18-.56-12.46.67-18.61.71-3.57.76-6.72-.35-9.85,3.95-.41,8.42-.26,11.13-2.16l2.48.27c-.46,11.91-.96,23.92-1.51,36.01l-1.2,2.19Z"/>
      <path class="cls-15" d="M603.85,119.04c-2.74,10.91-2.58,19.48-2.15,31.5-1.58,5.27-2.09,10.69-.51,15.53-3.48-.32-5.91.51-8.7-.17.55-4.49-.71-9.1.55-13.9,1.67-6.35-.24-12.94.71-19.4,1.88-12.74-.27-13.22,1.63-21.94,4.89,5.52,4.83,4.48,8.47,8.38Z"/>
      <path class="cls-12" d="M632.5,149.09c-2.44.35-3.67-1.39-3.71-5.22.77-10.67,1.35-21.27,1.75-31.82,3.01-4.81,2.87-9.64,3.14-14.88,3.3,1.64,3.03,5.24,4.32,7.09,3.28,4.7,3.02,9.68,3.52,15.26,1.03,11.54-2.39,20.92-9.02,29.57Z"/>
      <path class="cls-23" d="M632.5,149.09c-2.85,3.71-5.38,5.55-9.1,8.12-2.01-3.25-.27-7.03-.19-10.88l.42-20.57c.05-2.54,1.84-5.2,0-7.02,2.34-1.64,5.02-4.58,6.9-6.68,1.94,2.03,1.96,4.03,1.65,6.89-.72,6.47-.4,12.89-.54,19.45-1.54,3.84-.99,7.57.85,10.69Z"/>
    </g>
  </g>
</svg>