<?xml version="1.0" encoding="UTF-8"?>
<svg id="Camada_2" data-name="Camada 2" xmlns="http://www.w3.org/2000/svg" viewBox="0 0 541.96 223.58">
  <defs>
    <style>
      .cls-1, .cls-2 {
        fill: #fffbe7;
      }

      .cls-3 {
        fill: #8e684f;
      }

      .cls-4 {
        font-family: Poppins-Medium, Poppins;
        font-size: 16.25px;
        font-weight: 500;
      }

      .cls-4, .cls-5 {
        fill: #fffbe9;
      }

      .cls-5 {
        font-family: Poppins-SemiBold, Poppins;
        font-size: 22.04px;
        font-weight: 600;
      }

      .cls-2 {
        font-family: Adam-Bold, Adam;
        font-size: 46.4px;
        font-weight: 700;
        letter-spacing: .2em;
      }
    </style>
  </defs>
  <g id="Camada_1-2" data-name="Camada 1">
    <rect class="cls-3" x="0" y="167.17" width="541.96" height="25.45"/>
    <rect class="cls-3" x="18.02" y="196.43" width="505.92" height="24.66"/>
    <text class="cls-5" text-anchor="middle" transform="translate(270.98 187.33)"><tspan x="0" y="0">Viva Itacaré com o conforto que você merece!</tspan></text>
    <text class="cls-4" text-anchor="middle" transform="translate(270.98 214.13)"><tspan x="0" y="0">Suítes, lofts e Apartamentos mobiliados no centro de tudo.</tspan></text>
    <text class="cls-2" transform="translate(118.74 38.97)"><tspan x="0" y="0">residencial</tspan></text>
    <g>
      <path class="cls-1" d="M447.2,147.17c0,2.15-2.49.78-3.25-.18l-53.11-66.93-.27,42.63c-.04,6.18.15,12.24,2.49,17.88.86,3.57,3.66,4.9,7.29,6.78-6.71.36-12.98.62-20.6-.14,5.14-2.87,7.61-7.26,8.08-13.21,1.48-18.92,1.3-37.82.12-56.71-.24-3.86-5.47-5.76-8.02-8.49l18.59-.36,46.18,58.2c1.1-10.77.46-20.46.64-30.81.16-9.19.41-23.71-9.81-26.85,7.49-1.01,13.58-.62,20.71-.16-8.86,3.39-9.06,15.98-9.06,24.18l.03,54.16Z"/>
      <path class="cls-1" d="M217.34,149.71l-55.6-69.58-.4,42.54c-.08,8.12-.09,21.66,9.82,24.68-6.91.38-13.28.61-20.66-.13,7.55-3.16,8.77-14,8.83-20.69.14-16.64.82-32.99-.62-49.44-.34-3.76-5.58-5.46-8.05-8.31,6.35-.57,12.38-.26,19.01-.15l46.08,58.32.43-34.91c.11-8.61-.84-19.44-9.09-23.19,7.12-.42,12.94-.66,20,.15-3.11,2.03-5.95,2.78-6.66,6.43-1.94,5.6-2.92,11.49-2.25,17.59l-.83,56.72Z"/>
      <path class="cls-1" d="M57.38,140.39c-12.63,13.09-39.07,9.22-53.33.64-.03-7.08-.89-13.32.42-20.61,3.02,7.57,5.86,14.39,11.77,19.92,7.9,7.4,19.44,9.45,28.78,3.92,4.38-2.6,6.75-7.11,7.01-11.56,1.26-21.81-43.55-17.06-46.72-40.49-.96-7.07.63-13.42,5.94-17.92,12.86-10.88,31.26-7.7,46.2-1.69.03,6.64.6,12.8-.4,19.73-3.25-6.74-5.08-13.03-10.34-18.02-6.72-6.39-17.53-7.36-25.4-2.5-4,2.47-5.82,6.95-5.82,11.07.01,16.37,28.02,15.65,41.7,29.11,7.65,7.53,7.63,20.69.17,28.42Z"/>
      <path class="cls-1" d="M281.21,147.2c-9.31.74-17.35.47-26.91.13,4.02-2.3,6.36-4.67,6.37-9.28l.16-67.27c-13.3-2.74-23.4,5.04-27.05,18-1.25-7.41.73-13.46,1.16-20.27l65.31.06c.04,7.37,2.55,13.22,1.09,20.45-4.12-13.3-14.09-20.95-27.23-18.27l.1,66.29c0,5.03,1.92,8.15,6.99,10.16Z"/>
      <path class="cls-1" d="M367.74,139.56l-32.45-73.63-28.44,68.92c-2.25,5.45-5.25,9.3-10.39,12.44,7,.5,12.63.61,19.62-.04-12.2-4.62-3.91-17.83-.47-26.5l29.41.02c2.49,7.44,13.12,22.78,3.3,26.56,9.43.36,17.81.58,27.51-.1-3.93-2.59-6.43-3.95-8.08-7.68ZM316.25,118.32l13.67-33.66,14.08,33.69c-9.33.95-18.21.7-27.74-.03Z"/>
      <path class="cls-1" d="M118.82,147.24l27.5.24c-3.11-2.89-6.1-3.86-7.72-7.54l-32.71-74.07-28.92,70.03c-2.04,4.93-4.8,8.26-9.77,11.3,6.84.66,12.77.74,19.51-.04-12.2-4.59-3.79-18.51-.48-26.42l29.55.03c2.36,7.98,13.34,23.08,3.06,26.47ZM86.84,118.42l13.71-34.15,14.04,34.04c-9.18,1.02-18.18.66-27.75.12Z"/>
      <path class="cls-1" d="M530.27,140.23l-32.6-74.33-28.84,69.42c-2.14,5.14-5.17,8.67-10.27,11.9,6.83.65,12.76.68,19.62,0-11.85-4.17-3.59-18.77-.25-26.43l29.71.23c2.3,8.77,13.26,22.3,2.9,26.2,9.4.74,18.05.45,27.67.15-3.28-2.66-6.21-3.61-7.94-7.14ZM478.48,118.3l13.67-33.64,14.02,33.51c-9.35,1.2-18.31.9-27.7.13Z"/>
    </g>
  </g>
</svg>