<?xml version="1.0" encoding="UTF-8"?>
<svg id="Camada_2" data-name="Camada 2" xmlns="http://www.w3.org/2000/svg" viewBox="0 0 286.02 199.58">
  <defs>
    <style>
      .cls-1 {
        fill: #af7a48;
      }
    </style>
  </defs>
  <g id="Camada_1-2" data-name="Camada 1">
    <g>
      <path class="cls-1" d="M237.86,122.46l-186.29-.05-28.35,1.56C11.19,124.64.15,115.16.13,102.47L0,20.42C-.02,9.46,7.81.13,19.7.12L263.15,0c11.06,0,22.55,6.39,22.59,18.56l.27,81.88c.05,14.49-10.32,23.89-24.86,23.17l-23.3-1.15ZM241.97,83.93c10.99,0,15.73,7.55,15.91,16.35l.34,16.23c9.39,1.47,19.9-2.29,19.92-12.32l.13-83.55c.01-9.18-6.8-13.17-15.14-13.17l-243.48.12c-7.54,0-12.09,5.82-12.09,12.78v80.27c0,4.85,2.56,11.76,6.33,13.89,3.52,1.99,10.69,2.8,14.37,2.12l.41-20.55c.13-6.27,5.85-12.23,12.88-12.22l200.42.03ZM35.68,91.35v8.95s214.18.05,214.18.05v-8.95s-214.18-.05-214.18-.05ZM35.57,107.63v10.77s214.32.07,214.32.07v-10.77s-214.32-.07-214.32-.07Z"/>
      <path class="cls-1" d="M83.73,141.27c-2.46,37.22-44.16,49.68-31.2,33.58,26.81-13.45,18.93-31.15,27.85-38.56.86-.71,3.45,3.44,3.35,4.97Z"/>
      <path class="cls-1" d="M94.83,182.97c19.76-16.97,7.75-55.44,20.76-44.57,3.05,14.08-7.61,51.78-20.86,51.27-1.44-.06-1.28-5.51.1-6.7Z"/>
      <path class="cls-1" d="M209.71,141.3c3.43,32.4,34.38,34.75,26.13,38.48-1.29.58-5.54,1.68-6.99,1.03-26.61-11.96-30.65-49.65-23.03-44.68,1.04.68,3.71,3.54,3.89,5.18Z"/>
      <path class="cls-1" d="M147.09,199.53l-7.78.04c-.07-12.57-.29-23.45.63-35.27l2.21-28.45c2.47,3.01,3.46,7.6,3.58,12.3l1.36,51.38Z"/>
      <path class="cls-1" d="M190.13,182.02c1.48,1.43,1.99,7.12.46,7.05-13.82-.69-22.7-36.56-19.92-51.11,12.94-9.16.72,25.85,19.45,44.07Z"/>
      <path class="cls-1" d="M265.66,32.05c0,7.59-6.16,13.74-13.75,13.74s-13.75-6.15-13.75-13.74,6.16-13.74,13.75-13.74,13.75,6.15,13.75,13.74ZM258.23,32.02c0-3.5-2.84-6.33-6.34-6.33s-6.34,2.83-6.34,6.33,2.84,6.33,6.34,6.33,6.34-2.83,6.34-6.33Z"/>
      <path class="cls-1" d="M54.79,28.63c-13.67-1.06-22.47-1.16-35.51-4.32l36.13-4.62,4.81,4.1c1.07.92-3.3,3.66-5.43,4.84Z"/>
    </g>
  </g>
</svg>