<?xml version="1.0" encoding="UTF-8"?>
<svg id="Camada_2" data-name="Camada 2" xmlns="http://www.w3.org/2000/svg" viewBox="0 0 303.2 225.92">
  <defs>
    <style>
      .cls-1 {
        fill: #af7a48;
      }
    </style>
  </defs>
  <g id="Camada_1-2" data-name="Camada 1">
    <g>
      <path class="cls-1" d="M270.56,159.8l-16.57,1.36,10.77,26.73,3.93-11.13c9.45-.26,20.02-.35,30.26.39,3.17.23,4.08,10.19,1.37,11.8-1.47.87-4.97,1.66-5.22,2.98l-1.52,8.02-24.12.8,7.35,19.7c9.14,3.59,19.99-5.24,26.39,5.29l-298.51.17c-.97,0-4.15-2.31-3.47-2.76,6-3.95,10.65-.97,10.63-5.53l-.22-54.66c-5.53-1.16-7.17-1.38-11.63-3.82l11.51-2.5.09-55.82c8.57-10.46,18.51-20.9,28.66-30.8l.6-25.88,48.83.07.04,25.06,29.04,30.88.3,57.23c4.93-.25,9.12-.93,10.79,3.88l-10.97,1.65v57.64s17.81.07,17.81.07l.36-116c2.02-3.74,4.12-8.97,4.11-13.38l-.2-66.71c-.03-10.59,8.46-21.13,19.41-21.14l29.9-.04c13.27-.02,19.72,11.42,21.08,22.64,7.39,4.58,18.62,15.75,18.19,24.06-.11,2.12-4.97,4.07-7.32,4.07h-35.42c-2.03,0-6.42-1.25-7.03-2.99-2.46-7.02,9.62-18.93,16.63-24.47,3.37-2.66-1.44-10.39-5.73-10.42l-28.78-.2c-4.01-.03-7.76,4.54-7.71,8.5l.81,74.18c-.23-21.27,4.41,43.24,4.53,29.05l6.72-9.37c2.37,6.46,1.85,13.67-.38,17.74-3.63-3.06-4.6-3.98-8.05-5.69l-.32,90.35,28.89.11,7.22-19.87-23.74-1.14-1.91-8.41c-2.99-2.08-5.46-3.7-6.44-5.52-1.13-2.08.93-9.21,3.59-9.24l28.46-.35,5,10.55,10.44-25.61-16.35-1.42c-3.29-.29-3.54-12.39-.19-12.39l77.73-.1c3.1,0,3.4,11.89.37,12.39ZM161.35,11.38l29.11.04c8.19.01,10.39,8.67,13.84,15.37,4.05-8.09-3.36-17.78-12.66-18.28-10.33-.56-22.22-.6-32.59-.12-4.81.23-13.12,8.37-13.16,13.54-.18,24.87-1.58,52.09,1.21,78.93,3.71-26.06,1.04-50.56,1.78-76.29.19-6.59,4.31-13.2,12.46-13.19ZM220.22,41.08c-3.95-7.69-9.87-9.74-16.96-9.47-5.4.2-11.85,3.24-13.84,9.51l30.79-.04ZM185.46,46.24v3.32h38.21v-3.32h-38.21ZM85.21,67.92l-.33-18.97-39.07-.02-.09,19.1,39.49-.11ZM109.41,98.33l-23.01-25.22-42.03-.06-23.03,23.95c7.69,1.68,13.89,2.19,21.18,2.11l66.9-.77ZM105.79,111.52l.41,44.05c.02,2.03,7.71,1.86,7.71-.19l.15-51.75-97.38.13-.24,51.91c0,2.06,8.16,2.38,8.17.14l.34-44.36,80.83.06ZM153.03,104.33h-11.2v116.69h11.2v-116.69ZM69.68,136.03l6.8,5.92,1.82-6.43,6.8,6.47.32-4.35c.07-.96,2.76-.92,3.43-.23,16.08,16.51,3.94,8.88,11.06,21.46,1.92-15.01,1.53-28.55.71-42.54l-70.83.1.65,41.62c3.54-4.65,3.15-8.38,4.02-13.51l11.13-7.78.81,4.92c.13.82,3.1,1.01,3.43.26l1.2-2.74c.33-.75,1.79-3.18,2.32-2.59l2.44,2.78,2.59,2.95c.37.42.93-2.24,1.2-2.98.35-.94,2.49-3.43,3.09-2.64l2.21,2.94c.46.61,2.42,2.16,3.11,2.71.39.31.47-1.55.59-2.03l1.1-4.32ZM91.67,157.25c1.01-4.18.35-9.64-2.33-9.64l-49.52.04c-2.13,1.61-2.19,7.98-.04,9.54l51.88.06ZM195.43,152.51v3.32h71.44v-3.32h-71.44ZM214.62,159.86l-9.89,25.37,4.87,1.9,9.89-25.37-4.87-1.9ZM247.48,186.06l-9.07-25.04c-4.07-.06-10.21.25-13.6.79l-9.63,24.39,32.31-.14ZM257.91,184.47c-3.58-7.06-4.56-18.1-12.23-24.67-1.39,7.81,4.1,15.53,5.68,23.03.8.86,2.32,2.86,2.93,3.64s3.41-1.3,3.61-1.99ZM16.45,162.05l-.04,11.22,13.76.05.04-11.22-13.76-.05ZM61.58,173.26c2.2-2.03,1.67-10.22-.67-11.02l-25.1.07c-.88,2.97-.98,7.82-.31,11.05l26.08-.1ZM67.6,162l-.04,11.3,28.74.11.04-11.3-28.74-.11ZM100.7,161.94l-.09,11.33,13.7.11.09-11.33-13.7-.11ZM45.98,188.84l-.84-10.51-27.88.17c-.49,2.87-.59,7.87-.24,10.45l28.95-.11ZM79.18,189.03c.56-4.28.38-9.5-1.54-10.34l-25.23-.18c-2.57-.02-2.86,9.07-.89,10.4l27.66.13ZM114.06,189.02l-.53-10.51h-28.41s-.46,10.55-.46,10.55l29.4-.05ZM167.18,182.4v3.32h24.92v-3.32h-24.92ZM271.85,182.4v3.32h24.92v-3.32h-24.92ZM291.3,193.32c-37.45-5.38-77.63-.18-113.27-2.79-1.69-.12-4.52,1.69-4.56,2.66-.16,3.64,109.01,4.07,117.84.13ZM30.14,205.49l-.61-11.02-12.82.1-.14,10.56,13.58.36ZM62.9,205.36l-.21-10.81-27.5-.3c-.26,2.56-.41,7.17-.39,10.98l28.1.12ZM96.21,205.61l-.41-11.17-27.08-.06c-.67,2.47-1.03,7.3-.99,10.84l28.48.39ZM114.34,205.26l-.38-10.74-12.91-.12-.06,10.94,13.35-.08ZM197.5,203.66l-5.32,17.72c5.02,6.85,18.8-35.05,5.32-17.72ZM260.62,220.87l-7.62-20.69-43.36.41-7.02,20.43,58-.15ZM271.21,219.05l-7.11-18.08c-.34-.85-5.16.17-4.85,1.03l5.93,16.31c.34.94,3.31,3.41,4.04,2.79.48-.42,1.11-1.08,1.99-2.04ZM45.68,220.9l-1.04-10.54-26.74.36c-1.67,1.67-1.73,7.91-.28,10.04l28.06.14ZM78.59,220.79c1.76-2.01,1.31-10.09-1.08-10.28l-26.03.14c-1.89,1.65-1.54,10.18.83,10.17l26.28-.03ZM84.2,210.56v10.48s30.16.02,30.16.02v-10.48s-30.16-.02-30.16-.02Z"/>
      <path class="cls-1" d="M66.93.04c-9.06,14.72,15.51,27.37-3.71,37.05,6.09-21.38-6.17-15.78-3.83-30.76.45-2.86,4.51-6.77,7.54-6.29Z"/>
      <path class="cls-1" d="M48.56,8.44c-3.38,14.26,12.7,23.93-2.43,28.76,5.01-15.33-11.59-20.96,2.43-28.76Z"/>
      <path class="cls-1" d="M83.45,8.5c-3.13,15.43,12.55,19.99-1.38,28.86,2.48-15.61-11.75-23.13,1.38-28.86Z"/>
      <rect class="cls-1" x="211.05" y="72.05" width="4.15" height="6.65" transform="translate(-6.99 23.87) rotate(-6.31)"/>
      <rect class="cls-1" x="224.6" y="83.36" width="4.41" height="7.13" transform="translate(-15.49 69.95) rotate(-16.96)"/>
      <rect class="cls-1" x="182.07" y="72.73" width="7.43" height="4.22" transform="translate(81.19 245.65) rotate(-80.46)"/>
      <rect class="cls-1" x="202.34" y="72.28" width="4.17" height="7.01" transform="translate(-3.84 11.29) rotate(-3.14)"/>
      <rect class="cls-1" x="201.02" y="86.6" width="6.67" height="4.07" transform="translate(103.15 287.08) rotate(-86.43)"/>
      <rect class="cls-1" x="212.92" y="84.51" width="4.32" height="7.23" transform="translate(-8.31 23.92) rotate(-6.25)"/>
      <rect class="cls-1" x="208.99" y="59.31" width="4.25" height="6.66" transform="translate(-2.29 8.31) rotate(-2.24)"/>
      <path class="cls-1" d="M188.11,66.44c-1.12-1.79-.73-6.94.83-7.76,3.35.33,2.82,5.81-.83,7.76Z"/>
      <rect class="cls-1" x="192.53" y="73.45" width="6.56" height="4.02" transform="translate(108.18 266.13) rotate(-86.39)"/>
      <rect class="cls-1" x="227.84" y="95.25" width="4.14" height="7.05" transform="translate(-6.79 17.62) rotate(-4.33)"/>
      <rect class="cls-1" x="221.41" y="71.09" width="4.22" height="7.52" transform="translate(-10.47 46.38) rotate(-11.58)"/>
      <rect class="cls-1" x="190.42" y="85.98" width="7.06" height="4.43" transform="translate(90.93 274.7) rotate(-85.54)"/>
      <rect class="cls-1" x="178.68" y="85.2" width="7.41" height="4.06" transform="translate(43.36 234.02) rotate(-72.12)"/>
      <rect class="cls-1" x="195.07" y="59.33" width="4.6" height="6.33" transform="translate(-7.24 30.95) rotate(-8.81)"/>
      <path class="cls-1" d="M205.07,104.56c-.93.52-3.35-1.76-3.21-2.81s.98-4.43,1.91-3.92,2.38,1.66,2.95,2.45-.8,3.8-1.65,4.28Z"/>
      <path class="cls-1" d="M194.25,102.22c-.14.57-2.64,2.63-2.85,2.09l-1.26-3.24c-.33-.84.25-4.36,1.11-4.26l3.42.38c.85.09.1,2.96-.43,5.04Z"/>
      <rect class="cls-1" x="175.62" y="96.91" width="6.99" height="4.05" transform="translate(33.92 243.12) rotate(-73.72)"/>
      <rect class="cls-1" x="202.14" y="59.34" width="4.17" height="6.84" transform="translate(-.49 1.62) rotate(-.45)"/>
      <path class="cls-1" d="M220.5,65.45c-1.77.62-3.84-6.48-1.85-7.02,3.21-.89,4.94,5.94,1.85,7.02Z"/>
      <path class="cls-1" d="M217.86,103.61c-.55-.38-2.69-2.09-3.54-2.81-.78-.65.38-3.55,1.62-4.3,1.88-1.14,3.42,4.59,1.93,7.11Z"/>
    </g>
  </g>
</svg>