<?xml version="1.0" encoding="UTF-8"?>
<svg id="Camada_2" data-name="Camada 2" xmlns="http://www.w3.org/2000/svg" viewBox="0 0 209 230.16">
  <defs>
    <style>
      .cls-1 {
        fill: #af7a48;
      }
    </style>
  </defs>
  <g id="Camada_1-2" data-name="Camada 1">
    <g>
      <path class="cls-1" d="M192.51,229.57l-27.94.52-3.49-13.62-114.25-.07-1.8,13.76-27.72-.03-2.69-12.79c-5.3-1.37-14.45-5.17-14.46-12.13L0,27.46C-.02,10.78,20.27,15.28,24.65,11.61,26.61,4.9,31.92-.06,38.73,0l36.8.33c5.46.05,9.5,7.51,12.29,12.66l34.34-.14c2.85-4.2,7.67-12.44,11.98-12.48L171.32.04c7.91-.07,11.62,7.71,15.58,12.91,3.97.57,11.17,1.52,14.51,2.43,3.59.98,7.48,8.38,7.48,12.98l.1,172.91c0,9.13-5.37,14.51-14.6,15.51l-1.89,12.79ZM78.73,12.98c-1.96-2.84-4.33-4.52-7.13-5.65l-31.28.29c-2.62.02-7.29,2.95-9.58,5.36h48ZM176.58,13c-2.1-3.94-4.74-5.56-6.98-5.55l-31.01.07c-2.15,0-5.14,2.17-7.41,5.42l45.4.07ZM7.64,20.73v40.22s193.2.02,193.2.02V20.75s-193.2-.02-193.2-.02ZM200.84,67.95l-193.24.05.03,120.59,193.24-.05-.03-120.59ZM7.67,194.79v14.3h193.33v-14.3H7.67ZM23.06,216.56v6.29h16.15v-6.29h-16.15ZM169.54,216.4v6.68h16.4v-6.68h-16.4Z"/>
      <path class="cls-1" d="M170.14,179.25l-49.18-.51-83.45.51c-3.9.02-7.97-5.92-8-9.54l-.65-62.56c-.03-3.25,4.21-9.19,7.93-9.19l134.32-.03c3.46,0,7.96,4.45,7.96,7.39l-.04,65.77c0,3.58-4.7,8.19-8.89,8.15ZM171.56,105.34l-134.54.06.03,67.89,134.54-.06-.03-67.89Z"/>
      <rect class="cls-1" x="100.72" y="9.39" width="7.94" height="148.21" transform="translate(21.17 188.17) rotate(-89.99)"/>
      <path class="cls-1" d="M147.51,41.4c0,6.56-5.32,11.88-11.88,11.88s-11.88-5.32-11.88-11.88,5.32-11.88,11.88-11.88,11.88,5.32,11.88,11.88ZM139.54,41.25c0-2.29-1.86-4.15-4.15-4.15s-4.15,1.86-4.15,4.15,1.86,4.15,4.15,4.15,4.15-1.86,4.15-4.15Z"/>
      <path class="cls-1" d="M52.12,41.32c0,6.59-5.34,11.93-11.94,11.93s-11.94-5.34-11.94-11.93,5.34-11.93,11.94-11.93,11.94,5.34,11.94,11.93ZM44.21,41.27c0-2.32-1.88-4.21-4.21-4.21s-4.21,1.88-4.21,4.21,1.88,4.21,4.21,4.21,4.21-1.88,4.21-4.21Z"/>
      <path class="cls-1" d="M114.53,41.45c0,6.53-5.3,11.83-11.84,11.83s-11.84-5.3-11.84-11.83,5.3-11.83,11.84-11.83,11.84,5.3,11.84,11.83ZM106.77,41.18c0-2.32-1.88-4.2-4.2-4.2s-4.2,1.88-4.2,4.2,1.88,4.2,4.2,4.2,4.2-1.88,4.2-4.2Z"/>
      <path class="cls-1" d="M180.23,41.24c0,6.5-5.27,11.77-11.78,11.77s-11.78-5.27-11.78-11.77,5.27-11.77,11.78-11.77,11.78,5.27,11.78,11.77ZM172.66,41.34c0-2.35-1.91-4.26-4.26-4.26s-4.26,1.91-4.26,4.26,1.91,4.26,4.26,4.26,4.26-1.91,4.26-4.26Z"/>
    </g>
  </g>
</svg>