<?xml version="1.0" encoding="UTF-8"?>
<svg id="Camada_2" data-name="Camada 2" xmlns="http://www.w3.org/2000/svg" viewBox="0 0 256.27 263.02">
  <defs>
    <style>
      .cls-1 {
        fill: #af7a48;
      }
    </style>
  </defs>
  <g id="Camada_1-2" data-name="Camada 1">
    <g>
      <path class="cls-1" d="M249.44,262.91l-106.69.11c-9.52,0-16.96-8.15-14.91-18l5.43-26.12c.81-3.9-1.65-11.9.29-14.95,2.73-4.29,8.97-7.76,14.29-7.9l16.76-.42c1.5-6.71,4.53-12.24,8.83-17.26l.21-166.91C173.65,5.18,180.42-.02,185.29,0s11.69,5.2,11.69,11.42l.12,167.17c5.14,4.61,7.26,8.99,8.02,16.97l19.79.64c3.89.13,9.68,4.07,11.96,7.95,5.78,9.87-12.48,17.82,15.18,46.95,1.67,1.76,3.22,3.71,4.08,4.85,1.08,1.44-4.13,6.95-6.68,6.96ZM189.38,7.19h-8.13s.12,171.78.12,171.78h8.13s-.12-171.78-.12-171.78ZM197.5,195.54c-.2-2.54-1.35-7.73-2.25-9.1l-20.66.1-2.02,9.81,24.93-.82ZM229.86,210.67c.57-3.09-2.25-7.47-5.31-7.46l-78.52.11c-2.63,0-6,4.21-6.19,7.44l90.03-.09ZM145.21,253.41l3.49-34.56s-5.32-.3-7.4-.41l-6.66,28.59c-.45,1.94,2.45,7.04,4.18,8.01,1.44.8,6.15.18,6.39-1.62ZM164.58,254.18l-1.33-34.69c-10.64-11.32-11.05,30.68-9.21,33.92,1.61,2.4,10.44,3.2,10.54.77ZM183.98,254.62l-3.56-35.57c-.61-.25-6.25-.5-8.72-.43-2.11,11.06-1.64,24.54,1.8,34.91,2.34,1.05,8.39,1.46,10.48,1.1ZM225.9,254.72c-8.87-9.92-11.03-22.4-11.93-36.8l-26.56.22c.49,13.11,1.84,24.21,5.24,36.36l12.12,1.23c-3.13-8.66-5-14.02-6.49-21.85,14.05-5.47,4.53,27.33,27.61,20.84ZM246.21,254.42c-10.46-7.53-16.76-21.67-17.39-34.57-.09-1.81-7.29-2.02-7.29-.27-1.03,9.98,7.7,43.9,24.67,34.84Z"/>
      <path class="cls-1" d="M101.65,262.93l-69.11.04c-5.81,0-11.48-6.76-12.26-12.66l-11.24-84.87C4.06,162.74,0,158.55,0,154.11c0-4.3,4.41-8.58,9.04-10.85,3.39-30.91,27.51-55.48,58.32-55.54,31.3-.06,56.34,23.37,59.16,54.79,4.15,2.87,9.03,7.74,9.07,11.55.05,4.62-4.48,8.9-9.02,11.77l-10.78,83.53c-1.01,7.84-6.48,13.56-14.14,13.56ZM118.79,142.29c-3.64-30.71-27.54-47.54-53.23-46.67-25.19.86-46.58,20.01-48.13,47.18l101.36-.51ZM124.21,158.07c1.27,0,4.41-4.9,3.28-5.38-.85-.36-3.69-2.32-5.68-2.32l-110.32.11c-1.42,0-5.61,2.88-4.96,3.69l3,3.75,114.68.14ZM101.03,255.28c2.84-.39,6.68-3.43,6.99-5.71l11.17-84.1-101.85.22,9.34,79.44c.34,2.52,1.04,6.64,2.19,8.1s5.24,2.05,7.52,2.05h64.64Z"/>
    </g>
  </g>
</svg>