<?xml version="1.0" encoding="UTF-8"?>
<svg id="Camada_2" data-name="Camada 2" xmlns="http://www.w3.org/2000/svg" viewBox="0 0 257.47 263.28">
  <defs>
    <style>
      .cls-1 {
        fill: #af7a48;
      }
    </style>
  </defs>
  <g id="Camada_1-2" data-name="Camada 1">
    <g>
      <path class="cls-1" d="M66.7,79.85c-4.23,22.69-.7,43.58,2.33,65.53l-7.26,21.24,22.76-7.51c2.21-.73,8.76-.12,10.84-1.12,2.43-1.16,4.59-6.7,3.37-9.36-2.39-5.21-1.55-11.22-.48-15.75.77-3.29-1.64-10.46-.44-13.75s6.97-7.72,10.64-7.72l77.49.02c8.95,0,15.59,8.91,17.47,15.17,2.66,8.87-2.14,17.02-6.59,24.33,7.5,9.03,11.49,19.57,3.76,31.35l35.85.82c9.66.22,17.1,8.39,19.39,16.62,2.43,8.74-1.89,17.82-9.39,22.68,7.68,6.57,12.26,15.67,9.13,24.53-2.57,7.28-9.96,16.35-19.65,16.35l-214.55.02c-9.73,0-17.02-9.36-19.87-16.42-3.75-9.28,1.55-18.98,8.88-24.46-8.52-6.27-12.18-15.9-8.99-24.46,3.3-8.85,10.67-15.28,21.11-15.25l74.91.24c-1.1-4-.67-9.54.14-15.12-16.4-8.41-31.62,12.99-41.07,4.73-9.87-8.62,9.41-23.1,4.22-37.1-33.87-11.61-47.73,11.82-57.4,4.18-10.83-8.56,9.04-15.7,3.73-41.45C-3.01,49.63,16.2,40.79,2.01,15.23.3,12.15-.14,6.16,1.75,4c9.38-10.72,14.64,7.71,44.82,5.3,36.95-2.95,72.8-3.57,109.81-.1,30.02,2.82,33.02-15.34,44.4-6.98,9.5,6.98-8.11,22.63-2.78,37.86,9.48,1.82,19.88,3.13,29.81,1.73,6.95-.97,21.74-12.37,27.94-4.35s-7.37,21.18-5.84,29.71c4.64,25.87,4.81,48.84-.35,74.79-1.5,7.53,12.51,21.06,5.68,29.13-1.91,2.26-8.39,2.68-11.45,1.34-11.88-5.18-22.59-6.61-37.29-9.2,10.33-13.75,34.43,3.16,42.64,2.67l-7.76-22.46c6.13-25.39,5.83-49.22,1.18-74.93-1.37-7.56,4.38-17.02,6.95-25.25-8.07-6.3-9.18,9.45-34.68,6.43-39.6-4.69-78.34-3.64-118.32.36-21.35,2.14-21.22-6.6-34.23-7.25-4.62-.23,8.87,13.15,4.41,37.05ZM96.34,42.43c31.83-2.68,62.4-3.59,95.68-2.01-7.72-13.02,8.28-33.35,3.24-32.57-14.44,2.24-13.93,10.83-36.82,8.67-37.97-3.58-74.04-3.45-112,.07C19.75,19.06,2.2-.66,9.3,13.75c13.99,28.35-4.23,31.65,4.63,83.4,1.13,6.57,1.9,15.33.01,20.83l-5.89,17.14c24.48-12.88,21.9-10.67,51.46-8.2-2.77-14.63-3.06-31.29-.28-47.76,4.34-25.6-11.49-33.6-2.84-42.95,6.92-7.48,14.69,8.33,39.92,6.21ZM108.76,136.81c-2.29,0-6.23,3.48-5.48,5.22.63,1.45,4.04,4.46,6.12,4.46l76.84-.1c7.1,0,11.37-10.14,10.53-15.15-1.13-6.7-6.93-12.52-14.49-12.51l-72.83.11c-2.28,0-5.93,3.89-5.68,5.8s4.25,4.67,6.44,4.67l72.59-.03,1.86,5.25c.32.91-3.3,1.98-4.4,1.99l-71.48.29ZM107.91,172.69c-1.74,0-4.92,3.99-4.4,5.41s3.71,4.57,5.29,4.58l71.4.28c10.71.04,16.9-5.29,16.95-14.67s-6.82-14.12-16.87-14.06l-70.48.42c-2.27.01-5.97,4.13-5.96,5.99s4.31,4.42,6.53,4.42h70.05c1.68-.01,6.38,2.06,5.59,3.36s-4.19,4.07-5.72,4.07l-72.38.19ZM238.62,218.51c8.69-3.46,11.66-9.9,9.88-17.11-1.34-5.43-7.18-11.06-14.38-11.06H21.03c-8.07,0-13.66,9.74-12.8,15.12,1.08,6.71,6.67,12.99,14.5,12.99l215.89.07ZM237.05,255.1c9.73,0,12.16-12.7,10.65-18.13-1.75-6.31-7.36-10.69-15.46-10.68l-209.18.17c-8.86,0-14.58,7.16-14.89,14.27-.3,6.87,5.71,14.58,14.52,14.58l214.36-.21Z"/>
      <path class="cls-1" d="M24.52,109.67c16.19-38.12-2.42-74.09,1.25-81.78,4.98-10.41,20.65,41.82,6.2,84.3-.4,1.19-3.41,3.51-4.57,3.87-1.57.49-3.59-4.72-2.88-6.39Z"/>
      <rect class="cls-1" x="20.08" y="201.21" width="215.84" height="7.39"/>
      <rect class="cls-1" x="20.02" y="237.27" width="216.1" height="7.47"/>
    </g>
  </g>
</svg>