<?xml version="1.0" encoding="UTF-8"?>
<svg id="Camada_2" data-name="Camada 2" xmlns="http://www.w3.org/2000/svg" viewBox="0 0 225.46 229.76">
  <defs>
    <style>
      .cls-1 {
        fill: #af7a48;
      }
    </style>
  </defs>
  <g id="Camada_1-2" data-name="Camada 1">
    <g>
      <path class="cls-1" d="M175.56,215.84l-124.33-.16-2.32,13.82-27.93.16-3.56-12.69c-4.57-1.91-15.5-5.57-15.99-12.56-1.44-20.35-6.11-52.42,15.77-52.48l80.88-.22,4.81-64.94c.26-3.57,7.91-8.33,11.31-7.81s9.22,5.77,9.5,9.78l4.48,62.93,81.29.16c6.76.01,15.71,6.04,15.75,13.07l.23,35.72c.06,9.33-8.27,14.6-16.94,15.2l-2.22,13.24-27.7.7-3.04-13.92ZM121.04,150.86c-4.88-24.36.99-43.75-8.54-66.58-4.85,24.07-5.29,45.28-6.38,67.51l14.91-.93ZM210,208.33c4.78-1.66,8.01-5.77,7.99-9.35l-.17-32.21c-.02-3.82-4.18-7.12-8.8-7.12l-195.09.02c-2.34,0-5.48,5.32-5.49,7.35l-.16,31.95c.53,4.68,4.09,8.42,9.18,9.4l192.53-.03ZM26.03,215.79l-.11,6.75,16.61.26.11-6.75-16.61-.26ZM184.32,215.82l-.04,6.72,15.92.08.04-6.72-15.92-.08Z"/>
      <path class="cls-1" d="M178.83,33.58C142.99-1.21,82.42-1.07,49.68,32.4c-.82.84-4.72,1.79-5.57,2.02-1.23.32-3.19-3.23-1.87-4.68,36.29-39.76,105.61-39.38,141.64-.49,1.14,1.23.95,4.79-.02,5.08s-4.21.05-5.04-.75Z"/>
      <path class="cls-1" d="M159.8,52.12c-23.6-24.67-68.17-25.26-91.77-1.03-1.51,1.55-5.05,1.91-6.43,1.98s-.98-5.39,1.44-7.76c21.91-21.52,74.73-29.35,100.83.96l3.37,3.91c1.01,1.17-5.75,3.69-7.43,1.94Z"/>
      <path class="cls-1" d="M142.5,71.86c-11.08-13.88-46.35-15.18-57.33-.79-.87,1.14-6.69.25-6.38-.64,6.54-18.85,44.28-27.2,65.32-6.53l4.06,3.99c.88.87-4.3,5.69-5.67,3.98Z"/>
      <path class="cls-1" d="M107.01,183.79c0,6.04-4.9,10.93-10.94,10.93s-10.94-4.89-10.94-10.93,4.9-10.93,10.94-10.93,10.94,4.89,10.94,10.93ZM99.87,183.65c0-2.14-1.73-3.87-3.87-3.87s-3.87,1.73-3.87,3.87,1.73,3.87,3.87,3.87,3.87-1.73,3.87-3.87Z"/>
      <path class="cls-1" d="M43.13,183.85c0,6-4.87,10.87-10.87,10.87s-10.87-4.87-10.87-10.87,4.87-10.87,10.87-10.87,10.87,4.87,10.87,10.87ZM36.14,183.78c0-2.21-1.79-4-4-4s-4,1.79-4,4,1.79,4,4,4,4-1.79,4-4Z"/>
      <path class="cls-1" d="M74.88,183.76c0,6.02-4.88,10.89-10.9,10.89s-10.9-4.88-10.9-10.89,4.88-10.89,10.9-10.89,10.9,4.88,10.9,10.89ZM68.41,183.72c0-2.29-1.86-4.14-4.14-4.14s-4.14,1.85-4.14,4.14,1.86,4.14,4.14,4.14,4.14-1.85,4.14-4.14Z"/>
    </g>
  </g>
</svg>